<?xml version="1.0" standalone="no"?>
<!DOCTYPE svg PUBLIC "-//W3C//DTD SVG 20010904//EN"
 "http://www.w3.org/TR/2001/REC-SVG-20010904/DTD/svg10.dtd">
<svg version="1.0" xmlns="http://www.w3.org/2000/svg"
 width="770.000000pt" height="770.000000pt" viewBox="0 0 770.000000 770.000000"
 preserveAspectRatio="xMidYMid meet">
<metadata>
Created by potrace 1.14, written by Peter Selinger 2001-2017
</metadata>
<g transform="translate(0.000000,770.000000) scale(0.100000,-0.100000)"
fill="#000000" stroke="none">
<path d="M2651 7582 c-1 -7 -5 -11 -10 -7 -5 3 -13 0 -17 -6 -4 -8 -3 -9 4 -5
7 4 12 2 12 -3 0 -6 -3 -11 -7 -11 -5 0 -8 -16 -9 -35 0 -22 3 -32 10 -28 6 4
4 -2 -4 -12 -9 -11 -10 -16 -2 -11 6 4 12 2 12 -3 0 -6 -8 -11 -17 -11 -15 0
-14 -2 3 -15 14 -11 15 -14 4 -15 -13 0 -13 -1 0 -10 11 -7 11 -10 2 -10 -9 0
-10 -5 -3 -19 8 -15 7 -20 -6 -25 -14 -6 -14 -8 2 -26 10 -11 14 -20 9 -20 -5
0 -9 -16 -10 -35 0 -22 3 -32 10 -28 6 4 4 -2 -4 -12 -9 -11 -10 -16 -2 -11 6
4 12 2 12 -3 0 -6 -8 -11 -17 -11 -15 0 -14 -2 3 -15 14 -11 15 -14 4 -15 -13
0 -13 -1 0 -10 11 -7 11 -10 2 -10 -9 0 -10 -5 -3 -19 8 -15 7 -20 -6 -25 -14
-6 -14 -8 2 -26 10 -11 14 -20 9 -20 -5 0 -9 -16 -10 -35 0 -22 3 -32 10 -28
6 4 4 -2 -4 -12 -9 -11 -10 -16 -2 -11 6 4 12 2 12 -3 0 -6 -8 -11 -17 -11
-15 0 -14 -2 3 -15 14 -11 15 -14 4 -15 -13 0 -13 -1 0 -10 11 -7 11 -10 2
-10 -9 0 -10 -5 -3 -19 8 -15 7 -20 -6 -25 -14 -6 -14 -8 2 -26 10 -11 14 -20
9 -20 -5 0 -9 -16 -10 -35 0 -22 3 -32 10 -28 6 4 4 -2 -4 -12 -9 -11 -10 -16
-2 -11 6 4 12 2 12 -3 0 -6 -8 -11 -17 -11 -15 0 -14 -2 3 -15 14 -11 15 -14
4 -15 -13 0 -13 -1 0 -10 11 -7 11 -10 2 -10 -9 0 -10 -5 -3 -19 8 -15 7 -20
-6 -25 -14 -6 -14 -8 2 -26 10 -11 14 -20 9 -20 -5 0 -9 -16 -10 -35 0 -22 3
-32 10 -28 6 4 4 -2 -4 -12 -9 -11 -10 -16 -2 -11 6 4 12 2 12 -3 0 -6 -8 -11
-17 -11 -15 0 -14 -2 3 -15 14 -11 15 -14 4 -15 -13 0 -13 -1 0 -10 11 -7 11
-10 2 -10 -9 0 -10 -5 -3 -19 8 -15 7 -20 -6 -25 -14 -6 -14 -8 2 -26 10 -11
14 -20 9 -20 -5 0 -9 -16 -10 -35 0 -22 3 -32 10 -28 6 4 4 -2 -4 -12 -9 -11
-10 -16 -2 -11 6 4 12 2 12 -3 0 -6 -8 -11 -17 -11 -15 0 -14 -2 3 -15 14 -11
15 -14 4 -15 -13 0 -13 -1 0 -10 11 -7 11 -10 2 -10 -9 0 -10 -5 -3 -19 8 -15
7 -20 -6 -25 -14 -6 -14 -8 2 -26 10 -11 14 -20 9 -20 -5 0 -9 -16 -10 -35 0
-22 3 -32 10 -28 6 4 4 -2 -4 -12 -9 -11 -10 -16 -2 -11 6 4 12 2 12 -3 0 -6
-8 -11 -17 -11 -15 0 -14 -2 3 -15 14 -11 15 -14 4 -15 -13 0 -13 -1 0 -10 11
-7 11 -10 2 -10 -9 0 -10 -5 -3 -19 8 -15 7 -20 -6 -25 -14 -6 -14 -8 2 -26
10 -11 14 -20 9 -20 -5 0 -9 -16 -10 -35 0 -22 3 -32 10 -28 6 4 4 -2 -4 -12
-9 -11 -10 -16 -2 -11 6 4 12 2 12 -3 0 -6 -8 -11 -17 -11 -15 0 -14 -2 3 -15
14 -11 15 -14 4 -15 -13 0 -13 -1 0 -10 11 -7 11 -10 2 -10 -9 0 -10 -5 -3
-19 8 -15 7 -20 -6 -25 -14 -6 -14 -8 2 -26 10 -11 14 -20 9 -20 -5 0 -9 -16
-10 -35 0 -22 3 -32 10 -28 6 4 4 -2 -4 -12 -9 -11 -10 -16 -2 -11 6 4 12 2
12 -3 0 -6 -8 -11 -17 -11 -15 0 -14 -2 3 -15 14 -11 15 -14 4 -15 -13 0 -13
-1 0 -10 11 -7 11 -10 2 -10 -9 0 -10 -5 -3 -19 8 -15 7 -20 -6 -25 -14 -6
-14 -8 2 -26 10 -11 14 -20 9 -20 -5 0 -9 -16 -10 -35 0 -22 3 -32 10 -28 6 4
4 -2 -4 -12 -9 -11 -10 -16 -2 -11 6 4 12 2 12 -3 0 -6 -8 -11 -17 -11 -15 0
-14 -2 3 -15 14 -11 15 -14 4 -15 -13 0 -13 -1 0 -10 11 -7 11 -10 2 -10 -9 0
-10 -5 -3 -19 8 -15 7 -20 -6 -25 -14 -6 -14 -8 2 -26 14 -15 15 -20 4 -20
-11 0 -11 -2 1 -10 13 -8 12 -10 -4 -10 -20 0 -20 0 0 -15 14 -11 15 -14 4
-15 -13 0 -13 -1 0 -10 11 -7 11 -10 2 -10 -9 0 -10 -5 -3 -19 8 -15 7 -20 -6
-25 -14 -6 -14 -8 2 -26 10 -11 14 -20 9 -20 -5 0 -9 -16 -10 -35 0 -22 3 -32
10 -28 6 4 4 -2 -4 -12 -9 -11 -10 -16 -2 -11 6 4 12 2 12 -3 0 -6 -8 -11 -17
-11 -15 0 -14 -2 3 -15 14 -11 15 -14 4 -15 -13 0 -13 -1 0 -10 11 -7 11 -10
2 -10 -9 0 -10 -5 -3 -19 8 -15 7 -20 -6 -25 -14 -6 -14 -8 2 -26 10 -11 14
-20 9 -20 -5 0 -9 -16 -10 -35 0 -22 3 -32 10 -28 6 4 4 -2 -4 -12 -9 -11 -10
-16 -2 -11 6 4 12 2 12 -3 0 -6 -8 -11 -17 -11 -15 0 -14 -2 3 -15 14 -11 15
-14 4 -15 -13 0 -13 -1 0 -10 11 -7 11 -10 2 -10 -9 0 -10 -5 -3 -19 8 -15 7
-20 -6 -25 -14 -6 -14 -8 2 -26 10 -11 14 -20 9 -20 -5 0 -9 -16 -10 -35 0
-22 3 -32 10 -28 6 4 4 -2 -4 -12 -9 -11 -10 -16 -2 -11 6 4 12 2 12 -3 0 -6
-8 -11 -17 -11 -15 0 -14 -2 3 -15 14 -11 15 -14 4 -15 -13 0 -13 -1 0 -10 11
-7 11 -10 2 -10 -7 0 -10 -4 -7 -10 10 -17 13 -80 4 -80 -5 0 -4 -9 3 -20 7
-11 18 -18 25 -16 6 3 14 0 17 -7 2 -7 5 -7 5 -1 1 11 52 11 70 -1 6 -3 11 -1
11 5 0 7 6 8 18 2 9 -5 28 -6 42 -2 17 4 29 1 38 -9 7 -9 12 -11 11 -6 -3 23
2 27 18 14 11 -10 14 -10 9 -1 -4 6 -2 12 3 12 6 0 11 -4 11 -9 0 -6 12 -6 28
-1 16 4 36 4 45 -2 11 -6 17 -5 17 2 0 7 6 8 18 2 9 -5 28 -6 42 -2 17 4 29 1
38 -9 7 -9 12 -11 11 -6 -3 22 2 27 16 15 12 -10 15 -10 15 1 0 11 2 11 10 -1
9 -13 10 -13 10 0 0 13 1 13 10 0 6 -10 10 -11 10 -2 0 6 5 12 11 12 5 0 8 -4
5 -9 -4 -6 5 -6 21 -2 20 6 32 3 41 -8 8 -11 11 -12 10 -2 -4 16 79 22 87 6 3
-6 7 -5 11 3 5 10 9 10 22 0 12 -10 14 -10 8 0 -8 14 3 16 23 3 9 -6 22 -6 34
0 15 9 16 13 5 26 -20 24 -21 2038 -1 2071 7 12 10 22 5 22 -13 0 -11 34 2 43
8 5 6 10 -4 17 -13 9 -13 10 0 10 13 0 13 1 0 10 -13 9 -13 11 0 20 13 9 13
11 0 20 -13 9 -13 10 0 10 13 0 13 1 0 10 -13 9 -13 10 0 10 12 0 13 2 1 9
-11 7 -11 9 0 14 12 5 12 6 0 6 -11 1 -11 4 0 18 12 14 12 16 0 9 -11 -7 -11
-5 -3 10 7 13 7 25 0 38 -7 13 -6 21 3 27 12 7 11 11 -1 19 -13 9 -13 10 0 10
13 0 13 1 0 10 -13 9 -13 11 0 20 13 9 13 11 0 20 -13 9 -13 10 0 10 13 0 13
1 0 10 -13 9 -13 11 0 20 12 8 13 11 1 19 -11 7 -11 9 0 14 10 4 10 6 2 6 -7
1 -13 6 -13 12 0 5 6 7 13 3 9 -6 9 -4 -1 8 -10 13 -10 17 0 21 10 4 10 8 -2
16 -13 10 -13 11 0 11 13 0 13 1 0 10 -13 9 -13 11 0 20 13 9 13 10 0 10 -13
0 -13 1 0 10 12 8 13 11 1 19 -11 7 -11 9 0 14 10 4 10 6 2 6 -7 1 -13 6 -13
12 0 5 6 7 13 3 9 -6 9 -4 -1 8 -10 13 -10 17 0 21 10 4 10 8 -2 16 -13 10
-13 11 0 11 13 0 13 1 0 10 -13 9 -13 11 0 20 12 8 13 11 1 19 -11 7 -11 9 0
14 12 5 12 6 0 6 -11 1 -11 4 0 18 12 14 12 15 1 9 -11 -7 -12 -4 -4 11 7 12
7 24 0 37 -8 14 -7 21 3 27 12 8 12 11 -1 19 -13 9 -13 10 0 10 13 0 13 1 0
10 -13 9 -13 11 0 20 13 9 13 11 0 20 -13 9 -13 10 0 10 13 0 13 1 0 10 -13 9
-13 10 0 10 13 0 13 1 0 10 -13 9 -13 10 0 10 12 0 12 2 1 9 -7 5 -9 11 -4 14
5 3 8 23 5 44 -3 36 -3 48 -1 76 1 6 -2 20 -6 30 -4 11 -3 17 5 17 9 0 9 4 -1
17 -10 11 -10 14 -1 9 6 -4 12 -2 12 3 0 6 -5 11 -11 11 -8 0 -9 4 0 13 15 19
3 29 -20 16 -14 -7 -19 -6 -19 2 0 8 -4 8 -15 -1 -12 -10 -15 -10 -15 1 0 11
-2 11 -10 -1 -7 -11 -10 -11 -10 -2 0 9 -5 10 -18 3 -11 -6 -24 -6 -32 -1 -9
6 -17 5 -22 -3 -6 -9 -8 -9 -8 1 0 6 -5 12 -11 12 -5 0 -7 -6 -3 -12 5 -9 2
-9 -9 1 -12 9 -17 10 -17 2 0 -8 -6 -9 -18 -2 -11 6 -24 6 -35 0 -11 -7 -17
-6 -17 1 0 7 -6 8 -19 0 -14 -7 -21 -6 -24 3 -4 9 -6 9 -6 -1 -1 -10 -6 -10
-22 -1 -16 8 -20 8 -14 -1 6 -9 2 -9 -14 -1 -16 9 -21 9 -21 -1 0 -9 -3 -9
-10 2 -9 13 -10 13 -10 0 0 -13 -1 -13 -10 0 -9 13 -10 13 -10 0 0 -13 -1 -13
-10 0 -9 13 -11 13 -20 0 -7 -11 -10 -11 -10 -2 0 10 -5 10 -21 1 -16 -8 -20
-8 -14 1 6 9 2 9 -14 1 -16 -9 -21 -9 -21 1 0 9 -3 9 -10 -2 -7 -11 -10 -11
-10 -2 0 9 -5 10 -18 3 -11 -6 -24 -6 -32 -1 -9 6 -17 5 -22 -3 -6 -9 -8 -9
-8 1 0 6 -5 12 -11 12 -5 0 -7 -6 -3 -12 5 -9 2 -9 -9 1 -12 9 -17 10 -17 2 0
-8 -6 -9 -18 -2 -11 6 -24 6 -35 0 -11 -7 -17 -6 -17 1 0 7 -6 8 -19 0 -14 -7
-21 -6 -24 3 -4 9 -6 9 -6 -1z"/>
<path d="M163 7562 c-21 -3 -23 -9 -23 -63 0 -32 0 -709 0 -1504 0 -795 0
-1515 0 -1600 l0 -155 363 0 362 0 0 1660 0 1660 -95 0 c-52 0 -205 2 -340 3
-135 1 -255 1 -267 -1z"/>
<path d="M1493 7562 l-133 -3 0 -32 c-1 -48 -1 -3227 0 -3259 l0 -28 398 0
398 0 -1 111 c-1 60 3 113 7 115 5 3 5 11 1 17 -12 20 -12 41 0 56 7 9 8 12 1
8 -14 -8 -13 131 0 152 6 9 5 12 -1 8 -6 -4 -9 41 -9 118 0 75 4 121 10 118 5
-4 6 -1 0 8 -13 20 -13 139 0 139 8 0 7 3 0 8 -12 8 -13 149 -2 168 4 6 4 14
0 18 -12 13 -10 146 2 139 8 -5 8 -3 0 8 -6 8 -11 23 -11 34 0 11 5 26 11 34
8 11 8 13 0 8 -14 -8 -13 131 0 152 6 9 5 12 -1 8 -13 -8 -12 216 2 225 7 5 6
8 -1 8 -12 0 -14 154 -1 166 3 4 3 12 0 18 -12 19 -11 126 1 126 8 0 8 2 0 8
-12 8 -13 149 -2 168 4 6 4 14 1 18 -12 12 -12 40 0 55 7 9 8 12 1 8 -14 -8
-13 131 0 152 6 9 5 12 -1 8 -6 -4 -9 41 -9 118 0 75 4 121 10 118 5 -4 6 -1
0 8 -13 20 -13 139 0 139 8 0 7 3 0 8 -12 8 -13 156 -2 168 4 4 4 12 0 18 -12
19 -10 146 2 139 8 -5 8 -3 0 8 -6 8 -11 23 -11 34 0 11 5 26 11 34 8 11 8 13
0 8 -8 -5 -11 13 -10 63 l2 70 -141 0 c-77 0 -196 2 -265 3 -69 1 -185 1 -257
-1z"/>
<path d="M4450 7302 c-143 -143 -260 -263 -260 -267 0 -5 124 -132 276 -283
268 -267 276 -274 293 -256 10 11 136 135 280 278 258 254 262 258 244 278
-10 12 -127 129 -261 262 -212 211 -247 241 -277 244 -33 3 -46 -8 -295 -256z"/>
<path d="M5572 7297 l-263 -263 274 -273 c151 -150 278 -274 281 -275 5 -1
491 478 539 531 17 20 15 23 -88 127 -59 58 -110 106 -115 106 -4 0 -10 5 -12
11 -2 6 -69 76 -148 155 -122 122 -149 144 -175 144 -26 0 -65 -35 -293 -263z"/>
<path d="M6703 7298 c-255 -254 -262 -262 -245 -281 46 -52 533 -532 538 -531
9 3 545 537 547 546 1 4 -115 125 -258 268 -225 225 -264 260 -290 260 -26 0
-66 -36 -292 -262z"/>
<path d="M4180 5922 c0 -304 3 -552 6 -552 3 0 129 123 281 273 l275 273 -277
275 c-152 151 -278 276 -281 278 -2 2 -4 -244 -4 -547z"/>
<path d="M5026 6194 c-152 -152 -275 -279 -272 -282 3 -4 128 -129 278 -279
l272 -272 271 270 c148 148 273 269 278 269 4 0 7 4 7 9 0 6 -497 508 -554
558 -1 1 -127 -122 -280 -273z"/>
<path d="M6413 6450 c-12 -9 -19 -20 -16 -24 4 -3 1 -6 -5 -6 -14 0 -92 -78
-92 -92 0 -6 -3 -9 -6 -5 -3 3 -21 -10 -40 -28 -19 -19 -34 -40 -34 -46 0 -7
-3 -10 -6 -7 -5 5 -334 -316 -334 -326 0 -2 125 -128 277 -279 l277 -275 85
86 c47 48 85 91 83 95 -1 5 1 6 6 3 5 -3 92 79 195 182 l187 188 -275 274
c-152 151 -277 276 -278 277 -1 1 -12 -7 -24 -17z"/>
<path d="M7272 6187 l-273 -271 193 -193 c106 -106 198 -193 205 -193 7 0 12
-6 10 -12 -1 -7 4 -12 10 -11 7 2 12 0 10 -5 -1 -4 26 -36 61 -70 34 -35 62
-57 63 -50 4 54 3 1062 -1 1068 -3 5 -128 -113 -278 -263z"/>
<path d="M4682 5290 c-34 -33 -62 -64 -62 -70 0 -5 -6 -9 -12 -7 -7 1 -12 -4
-10 -10 1 -7 -1 -12 -6 -10 -10 3 -108 -95 -105 -105 2 -5 -4 -8 -13 -8 -9 0
-12 -5 -8 -12 4 -6 3 -8 -3 -5 -13 8 -46 -27 -36 -37 5 -4 1 -6 -7 -4 -8 2
-14 -4 -15 -12 0 -8 -5 -14 -11 -13 -5 1 -54 -43 -109 -98 -81 -80 -97 -101
-85 -109 8 -5 12 -10 9 -10 -4 0 115 -121 263 -268 l270 -268 119 118 c65 65
119 122 119 128 0 5 3 9 8 8 4 -2 75 65 159 149 l152 151 -275 274 c-151 150
-276 274 -278 275 -1 2 -30 -24 -64 -57z"/>
<path d="M5586 5073 l-278 -276 174 -172 c95 -95 176 -171 181 -168 4 2 6 0 5
-5 -2 -5 43 -54 98 -109 l102 -100 277 278 277 277 -276 276 c-152 152 -278
276 -280 276 -1 0 -127 -124 -280 -277z"/>
<path d="M6711 5075 c-247 -247 -273 -276 -260 -291 8 -10 133 -135 278 -280
202 -200 268 -259 277 -250 72 67 544 540 544 545 0 13 -148 150 -154 143 -4
-4 -6 -2 -4 4 3 12 -385 404 -399 403 -4 0 -131 -124 -282 -274z"/>
<path d="M2615 4311 c-3 -5 -2 -12 3 -15 5 -3 9 1 9 9 0 17 -3 19 -12 6z"/>
<path d="M684 3445 c-43 -36 -88 -73 -99 -83 -11 -10 -74 -62 -140 -117 -66
-54 -160 -133 -210 -174 -50 -41 -91 -76 -93 -77 -2 -1 -4 -634 -2 -919 0 -44
4 -75 8 -70 4 6 86 75 182 155 96 80 177 147 180 150 3 3 30 25 60 50 30 25
64 52 75 61 11 10 42 35 68 58 27 23 51 41 54 41 3 0 61 -46 128 -102 67 -57
144 -121 170 -143 27 -22 68 -56 90 -75 43 -37 81 -68 235 -196 52 -44 104
-87 115 -96 11 -9 72 -60 135 -112 63 -53 117 -96 120 -96 4 0 110 88 210 174
14 11 61 50 105 86 44 35 82 67 85 70 3 4 61 53 130 109 69 57 149 124 178
149 29 25 65 54 80 66 15 11 29 23 32 26 3 3 34 29 70 59 36 30 73 61 82 69
16 13 24 9 86 -41 38 -30 75 -61 83 -69 8 -7 37 -31 64 -53 28 -22 61 -50 75
-61 22 -19 337 -282 382 -319 10 -8 19 -11 21 -7 8 16 1 958 -7 971 -6 10 -5
12 2 7 30 -18 7 4 -40 39 -29 22 -60 47 -68 55 -8 9 -37 34 -65 55 -27 22 -57
47 -66 55 -9 8 -36 31 -60 50 -50 40 -112 93 -186 156 -29 25 -55 45 -58 44
-4 -1 -16 9 -28 23 -12 13 -43 40 -69 61 l-47 38 -58 -47 c-32 -26 -59 -51
-61 -56 -2 -5 -8 -9 -13 -9 -5 0 -17 -8 -27 -17 -10 -10 -40 -37 -67 -59 -236
-196 -544 -452 -559 -464 -10 -8 -29 -25 -42 -37 -13 -13 -27 -23 -33 -23 -5
0 -11 -4 -13 -9 -1 -5 -29 -30 -61 -56 l-58 -47 -32 25 c-18 14 -42 33 -54 43
-40 35 -226 190 -258 216 -5 5 -32 28 -60 53 -27 24 -56 45 -64 45 -8 0 -11 3
-8 7 4 3 -3 13 -16 22 -33 23 -321 263 -329 276 -5 6 -8 6 -8 0 0 -5 -7 1 -16
13 -8 12 -22 22 -31 22 -9 0 -14 3 -10 6 5 5 -94 94 -106 94 -2 0 -39 -29 -83
-65z"/>
<path d="M4191 3490 c-11 -6 -11 -449 -1 -455 10 -6 463 445 455 453 -8 8
-442 10 -454 2z"/>
<path d="M5184 3491 c-6 -6 105 -111 117 -111 5 0 8 -3 7 -7 -4 -11 240 -253
254 -253 6 0 9 -2 6 -5 -5 -5 652 -665 666 -669 3 0 107 100 232 223 l226 224
-301 301 -302 301 -450 0 c-248 0 -452 -2 -455 -4z"/>
<path d="M6640 3493 c0 -8 292 -293 300 -293 6 0 9 -3 8 -7 -2 -8 586 -595
600 -601 4 -1 7 202 6 450 l0 453 -457 0 c-251 0 -457 -1 -457 -2z"/>
<path d="M4679 3012 c-119 -119 -219 -222 -222 -229 -7 -11 81 -100 1183
-1193 272 -270 651 -647 842 -836 l347 -345 231 227 231 228 -630 626 c-346
344 -882 876 -1191 1183 -308 306 -564 557 -568 556 -4 0 -104 -98 -223 -217z"/>
<path d="M6943 2626 c-272 -268 -443 -440 -443 -446 0 -3 65 -71 146 -151 80
-79 316 -314 525 -521 209 -208 381 -378 383 -378 1 0 2 22 0 50 -1 35 2 48
10 43 8 -5 8 -3 0 8 -15 18 -14 160 1 151 5 -3 5 1 -1 9 -15 18 -14 160 1 151
5 -3 5 1 -1 9 -15 18 -14 160 1 151 5 -3 5 1 -1 9 -15 18 -14 160 1 151 5 -3
5 1 -2 9 -7 9 -11 44 -9 91 l2 77 -301 299 c-220 219 -304 296 -312 288z"/>
<path d="M4183 2048 c0 -462 1 -478 37 -478 6 0 9 -4 6 -9 -7 -11 19 -33 28
-23 4 4 6 2 4 -3 -3 -10 506 -524 523 -528 4 -1 110 99 234 222 l226 225 -213
210 c-117 116 -216 210 -220 208 -5 -1 -8 2 -8 7 0 13 -62 76 -72 73 -4 -1 -8
2 -8 7 0 13 -103 116 -112 113 -5 -1 -8 2 -8 7 0 7 -87 96 -322 329 l-95 93 0
-453z"/>
<path d="M744 1947 c-6 -7 -28 -25 -49 -42 -21 -16 -43 -35 -49 -40 -6 -6 -36
-30 -66 -54 -30 -25 -59 -49 -65 -55 -5 -6 -32 -29 -60 -51 -64 -51 -91 -74
-126 -105 -15 -14 -64 -54 -108 -90 l-81 -65 0 -122 c-1 -132 -1 -533 0 -739
l0 -125 28 20 c15 11 41 32 58 48 17 15 38 33 47 38 8 6 86 70 173 143 88 73
176 148 198 165 21 18 55 47 75 64 20 18 41 33 46 33 6 0 47 -32 93 -70 45
-39 82 -68 82 -66 0 2 13 -8 28 -22 15 -15 41 -38 57 -52 35 -29 131 -108 158
-130 11 -8 40 -33 64 -55 25 -22 55 -46 67 -54 12 -8 23 -17 26 -21 3 -3 47
-41 99 -83 51 -43 98 -83 105 -88 21 -18 61 -51 105 -87 25 -21 59 -50 77 -65
l32 -28 94 78 c51 42 95 79 98 83 3 3 27 24 55 45 27 22 55 45 61 50 6 6 30
26 54 45 24 19 54 44 67 55 12 11 39 34 59 50 20 17 41 35 48 40 6 6 38 32 71
60 33 27 62 52 65 55 3 3 26 22 52 43 26 21 53 43 60 50 7 7 33 28 58 47 24
19 52 43 62 52 9 9 28 24 42 33 14 10 24 20 22 24 -3 4 5 8 17 8 11 1 37 -12
57 -30 37 -33 45 -40 260 -218 163 -136 158 -131 210 -175 25 -22 65 -55 89
-74 23 -19 52 -43 63 -53 12 -9 22 -17 22 -17 1 0 1 222 1 492 l0 493 -45 39
c-79 68 -94 80 -150 126 -30 25 -57 47 -60 50 -3 3 -30 25 -60 50 -30 25 -66
54 -80 66 -14 12 -68 57 -120 101 -52 43 -96 81 -98 85 -2 5 -8 8 -12 8 -5 0
-20 11 -34 25 -30 30 -37 30 -63 8 -18 -16 -40 -35 -124 -105 -11 -9 -38 -31
-61 -50 -23 -18 -46 -37 -52 -43 -19 -17 -140 -118 -186 -155 -24 -19 -59 -49
-77 -67 -18 -17 -33 -29 -33 -26 0 2 -6 -2 -13 -9 -8 -7 -33 -29 -57 -48 -24
-19 -48 -40 -54 -45 -6 -6 -77 -66 -159 -133 -165 -138 -142 -131 -217 -65
-14 12 -59 49 -100 83 -41 34 -95 79 -120 100 -25 20 -115 95 -200 166 -85 71
-160 133 -167 139 -6 5 -28 24 -50 42 -21 17 -92 76 -158 132 -66 55 -124 101
-130 100 -5 0 -15 -5 -21 -12z"/>
<path d="M5445 1138 c-27 -29 -49 -56 -47 -61 1 -5 -1 -6 -6 -3 -5 3 -86 -73
-181 -168 -95 -96 -168 -175 -162 -177 5 -2 140 -133 299 -292 l290 -287 458
0 459 0 -25 24 c-14 13 -28 21 -33 19 -4 -2 -6 -1 -5 4 3 8 -981 993 -992 993
-3 0 -27 -23 -55 -52z"/>
<path d="M4183 600 l0 -450 453 0 c250 0 454 1 454 3 0 8 -713 713 -726 717
-8 3 -16 10 -17 15 -1 6 -5 9 -9 8 -5 -2 -7 2 -5 9 1 6 -9 17 -23 25 -14 7
-22 13 -18 13 8 0 -97 110 -105 110 -2 0 -4 -202 -4 -450z"/>
<path d="M7434 511 c-56 -55 -99 -102 -96 -105 3 -3 0 -6 -6 -6 -14 0 -232
-218 -232 -232 0 -5 -4 -6 -10 -3 -5 3 -10 1 -10 -5 0 -7 73 -10 237 -8 l236
3 0 224 c1 130 -3 226 -9 228 -5 2 -55 -42 -110 -96z"/>
</g>
</svg>
