<svg xmlns="http://www.w3.org/2000/svg" width="256" height="55" viewBox="0 0 256 55">
  <defs>
    <style>
      .cls-1 {
        fill: #40060b;
        fill-rule: evenodd;
      }
    </style>
  </defs>
  <path class="cls-1" d="M141.411,71.182c0,3.3-1.892,5.973-5.413,5.973s-5.413-2.674-5.413-5.973V65.819c0-3.3,1.891-5.974,5.413-5.974s5.413,2.674,5.413,5.974v5.362ZM136,55.4c-6.69,0-10.285,4.438-10.285,9.914v6.363c0,5.476,3.595,9.914,10.285,9.914s10.284-4.438,10.284-9.914V65.318c0-5.476-3.594-9.914-10.284-9.914m98.2,15.778c0,3.3-1.892,5.973-5.413,5.973s-5.413-2.674-5.413-5.973V65.819c0-3.3,1.892-5.974,5.413-5.974s5.413,2.674,5.413,5.974v5.362ZM228.783,55.4c-6.69,0-10.285,4.438-10.285,9.914v6.363c0,5.476,3.595,9.914,10.285,9.914s10.285-4.438,10.285-9.914V65.318c0-5.476-3.595-9.914-10.285-9.914m37.462,15.39c0,3.433-1.749,5.973-5.411,5.973h-3.862V60.233h3.86c3.664,0,5.413,2.541,5.413,5.974v4.588Zm-5.827-15H252.1V81.208h8.318c7.242,0,10.7-4.216,10.7-9.913V65.7c0-5.7-3.457-9.913-10.7-9.913M164.9,76.767V55.792h-4.872V81.208h15.593V76.767H164.9Zm30.443-9.018v3.006h5.969v0.427c0,3.3-1.892,5.973-5.413,5.973s-5.413-2.675-5.413-5.973V65.819c0-3.3,1.891-5.974,5.413-5.974,3.341,0,4.881,1.647,5.272,4.545h4.781c-0.39-5.2-3.542-8.987-10.053-8.987-6.69,0-10.284,4.439-10.284,9.914v6.363c0,5.475,3.594,9.914,10.284,9.914s10.285-4.439,10.285-9.914V67.749H195.339Zm85.07,13.459h5.255l7.541-19.122,7.539,19.122H306L295.737,55.792h-5.065ZM65.273,41H59.442v24.76h5.831V41Zm-9.441,0H50v24.76h5.831V41Zm18.884,0H68.884v24.76h5.832V41Zm5.37,20.641L84.2,65.76l4.113-4.12L84.2,57.52Zm16.49,0,4.112,4.12,4.113-4.12-4.113-4.12Zm-8.264,0,4.112,4.12,4.113-4.12-4.113-4.12Zm0-16.52L84.2,41l-4.113,4.12,4.113,4.12Zm16.49,0L100.688,41l-4.114,4.12,4.114,4.12Zm-8.264,0L92.423,41,88.31,45.12l4.113,4.12Zm-4.073,8.26,4.112,4.12,4.114-4.12-4.114-4.12Zm-0.04,0-4.112-4.12L84.2,53.38l4.113,4.12ZM104.8,57.5V49.259l-4.112,4.121ZM80.085,49.26V57.5L84.2,53.379Zm-5.37,37.553-5.092-4.278-7.265,6.1-7.264-6.1L50,86.812v7.362L55.093,89.9,62.358,96l7.265-6.1,5.092,4.278V86.812ZM50,82.746l5.092-4.278,7.265,6.1,7.265-6.1,5.092,4.278V75.383L69.622,71.1l-7.265,6.1-7.265-6.1L50,75.383v7.362Zm45.128-3.663L98.5,75.7l-4.454-4.464H87.3ZM98,71.239l6.8,6.816V71.293l-0.054-.054H98ZM104.669,92.5L101.3,95.885,101.409,96H104.8V92.636ZM80.194,74.745l3.374-3.381-0.124-.125H80.086v3.4ZM86.856,96l-6.771-6.784v6.762L80.107,96h6.749Zm2.9-7.764-3.374,3.38L90.758,96h6.749Zm10.628-10.648-3.374,3.38,7.789,7.8V82.012ZM84.5,89.731l3.374-3.38-7.79-7.8v6.762Zm14.981,4.338,3.374-3.38L85.381,73.18l-3.374,3.38Z" transform="translate(-50 -41)"/>
</svg>
